<mxfile host="app.diagrams.net" modified="2021-07-08T06:17:24.251Z" agent="5.0 (Windows NT 10.0; Win64; x64) AppleWebKit/537.36 (KHTML, like Gecko) Chrome/91.0.4472.124 Safari/537.36" etag="AdWQrdprrsqNVaW5Vuq4" version="14.8.4" type="github">
  <diagram name="Page-1" id="13e1069c-82ec-6db2-03f1-153e76fe0fe0">
    <mxGraphModel dx="946" dy="195" grid="1" gridSize="10" guides="1" tooltips="1" connect="1" arrows="1" fold="1" page="1" pageScale="1" pageWidth="2336" pageHeight="1654" background="none" math="0" shadow="0">
      <root>
        <mxCell id="0" />
        <mxCell id="1" parent="0" />
        <mxCell id="7baba1c4bc27f4b0-2" value="dbFileMgr" style="shape=umlLifeline;perimeter=lifelinePerimeter;whiteSpace=wrap;html=1;container=1;collapsible=0;recursiveResize=0;outlineConnect=0;rounded=1;shadow=0;comic=0;labelBackgroundColor=none;strokeWidth=1;fontFamily=Verdana;fontSize=12;align=center;" parent="1" vertex="1">
          <mxGeometry x="240" y="80" width="100" height="2540" as="geometry" />
        </mxCell>
        <mxCell id="7baba1c4bc27f4b0-10" value="" style="html=1;points=[];perimeter=orthogonalPerimeter;rounded=0;shadow=0;comic=0;labelBackgroundColor=none;strokeWidth=1;fontFamily=Verdana;fontSize=12;align=center;" parent="7baba1c4bc27f4b0-2" vertex="1">
          <mxGeometry x="40" y="100" width="10" height="2370" as="geometry" />
        </mxCell>
        <mxCell id="7baba1c4bc27f4b0-3" value="dbFileRecordHeader" style="shape=umlLifeline;perimeter=lifelinePerimeter;whiteSpace=wrap;html=1;container=1;collapsible=0;recursiveResize=0;outlineConnect=0;rounded=1;shadow=0;comic=0;labelBackgroundColor=none;strokeWidth=1;fontFamily=Verdana;fontSize=12;align=center;" parent="1" vertex="1">
          <mxGeometry x="387" y="80" width="120" height="2310" as="geometry" />
        </mxCell>
        <mxCell id="7baba1c4bc27f4b0-13" value="" style="html=1;points=[];perimeter=orthogonalPerimeter;rounded=0;shadow=0;comic=0;labelBackgroundColor=none;strokeWidth=1;fontFamily=Verdana;fontSize=12;align=center;" parent="7baba1c4bc27f4b0-3" vertex="1">
          <mxGeometry x="50" y="190" width="10" height="1840" as="geometry" />
        </mxCell>
        <mxCell id="7baba1c4bc27f4b0-4" value="dbFileModule" style="shape=umlLifeline;perimeter=lifelinePerimeter;whiteSpace=wrap;html=1;container=1;collapsible=0;recursiveResize=0;outlineConnect=0;rounded=1;shadow=0;comic=0;labelBackgroundColor=none;strokeWidth=1;fontFamily=Verdana;fontSize=12;align=center;" parent="1" vertex="1">
          <mxGeometry x="610" y="80" width="100" height="2180" as="geometry" />
        </mxCell>
        <mxCell id="7baba1c4bc27f4b0-8" value="dbTcl" style="shape=umlLifeline;perimeter=lifelinePerimeter;whiteSpace=wrap;html=1;container=1;collapsible=0;recursiveResize=0;outlineConnect=0;rounded=1;shadow=0;comic=0;labelBackgroundColor=none;strokeWidth=1;fontFamily=Verdana;fontSize=12;align=center;" parent="1" vertex="1">
          <mxGeometry x="20" y="80" width="120" height="1970" as="geometry" />
        </mxCell>
        <mxCell id="7baba1c4bc27f4b0-9" value="" style="html=1;points=[];perimeter=orthogonalPerimeter;rounded=0;shadow=0;comic=0;labelBackgroundColor=none;strokeWidth=1;fontFamily=Verdana;fontSize=12;align=center;" parent="7baba1c4bc27f4b0-8" vertex="1">
          <mxGeometry x="50" y="100" width="10" height="1870" as="geometry" />
        </mxCell>
        <mxCell id="7baba1c4bc27f4b0-22" value="" style="html=1;points=[];perimeter=orthogonalPerimeter;rounded=0;shadow=0;comic=0;labelBackgroundColor=none;strokeWidth=1;fontFamily=Verdana;fontSize=12;align=center;" parent="1" vertex="1">
          <mxGeometry x="650" y="820" width="10" height="630" as="geometry" />
        </mxCell>
        <mxCell id="7baba1c4bc27f4b0-11" value="SaveProject()" style="html=1;verticalAlign=bottom;endArrow=block;entryX=0;entryY=0;labelBackgroundColor=none;fontFamily=Verdana;fontSize=12;edgeStyle=elbowEdgeStyle;elbow=vertical;" parent="1" source="7baba1c4bc27f4b0-9" target="7baba1c4bc27f4b0-10" edge="1">
          <mxGeometry relative="1" as="geometry">
            <mxPoint x="220" y="190" as="sourcePoint" />
          </mxGeometry>
        </mxCell>
        <mxCell id="7baba1c4bc27f4b0-40" value="Note" style="shape=note;whiteSpace=wrap;html=1;size=14;verticalAlign=top;align=left;spacingTop=-6;rounded=0;shadow=0;comic=0;labelBackgroundColor=none;strokeWidth=1;fontFamily=Verdana;fontSize=12" parent="1" vertex="1">
          <mxGeometry x="100" y="30" width="100" height="35" as="geometry" />
        </mxCell>
        <mxCell id="7baba1c4bc27f4b0-41" value="Note" style="shape=note;whiteSpace=wrap;html=1;size=14;verticalAlign=top;align=left;spacingTop=-6;rounded=0;shadow=0;comic=0;labelBackgroundColor=none;strokeWidth=1;fontFamily=Verdana;fontSize=12" parent="1" vertex="1">
          <mxGeometry x="240" y="30" width="100" height="35" as="geometry" />
        </mxCell>
        <mxCell id="7baba1c4bc27f4b0-42" value="Note" style="shape=note;whiteSpace=wrap;html=1;size=14;verticalAlign=top;align=left;spacingTop=-6;rounded=0;shadow=0;comic=0;labelBackgroundColor=none;strokeWidth=1;fontFamily=Verdana;fontSize=12" parent="1" vertex="1">
          <mxGeometry x="400" y="30" width="100" height="35" as="geometry" />
        </mxCell>
        <mxCell id="7baba1c4bc27f4b0-43" value="Note" style="shape=note;whiteSpace=wrap;html=1;size=14;verticalAlign=top;align=left;spacingTop=-6;rounded=0;shadow=0;comic=0;labelBackgroundColor=none;strokeWidth=1;fontFamily=Verdana;fontSize=12" parent="1" vertex="1">
          <mxGeometry x="610" y="30" width="100" height="35" as="geometry" />
        </mxCell>
        <mxCell id="d6GwyU90o3NcPy6OCHg7-1" value="check for&lt;br&gt;DESIGN filetype" style="html=1;verticalAlign=bottom;endArrow=block;labelBackgroundColor=none;fontFamily=Verdana;fontSize=12;elbow=vertical;edgeStyle=orthogonalEdgeStyle;curved=1;exitX=1.038;exitY=0.345;exitPerimeter=0;" edge="1" parent="1" target="7baba1c4bc27f4b0-2">
          <mxGeometry relative="1" as="geometry">
            <mxPoint x="294.0000000000001" y="192.08000000000004" as="sourcePoint" />
            <mxPoint x="299" y="230" as="targetPoint" />
            <Array as="points">
              <mxPoint x="349" y="192" />
              <mxPoint x="349" y="220" />
            </Array>
          </mxGeometry>
        </mxCell>
        <mxCell id="d6GwyU90o3NcPy6OCHg7-2" value="WriteDbFileHeader" style="shape=umlFrame;whiteSpace=wrap;html=1;width=110;height=15;" vertex="1" parent="1">
          <mxGeometry x="170" y="265" width="430" height="350" as="geometry" />
        </mxCell>
        <mxCell id="d6GwyU90o3NcPy6OCHg7-14" value="WriteHeader(&amp;amp;hdr, VERSION)" style="html=1;verticalAlign=bottom;endArrow=block;entryX=0;entryY=0;labelBackgroundColor=none;fontFamily=Verdana;fontSize=12;edgeStyle=elbowEdgeStyle;elbow=vertical;" edge="1" parent="1">
          <mxGeometry relative="1" as="geometry">
            <mxPoint x="291" y="289" as="sourcePoint" />
            <mxPoint x="438" y="289" as="targetPoint" />
            <Array as="points">
              <mxPoint x="411" y="289" />
              <mxPoint x="381" y="272" />
            </Array>
          </mxGeometry>
        </mxCell>
        <mxCell id="d6GwyU90o3NcPy6OCHg7-28" value="hdr.Set(Version,0,0)" style="html=1;verticalAlign=bottom;endArrow=block;labelBackgroundColor=none;fontFamily=Verdana;fontSize=12;elbow=vertical;edgeStyle=orthogonalEdgeStyle;curved=1;entryX=1;entryY=0.286;entryPerimeter=0;exitX=1.038;exitY=0.345;exitPerimeter=0;" edge="1" parent="1">
          <mxGeometry x="0.1731" relative="1" as="geometry">
            <mxPoint x="442" y="291" as="sourcePoint" />
            <mxPoint x="447" y="329.3333333333335" as="targetPoint" />
            <Array as="points">
              <mxPoint x="496.6666666666665" y="291" />
              <mxPoint x="496.6666666666665" y="329" />
            </Array>
            <mxPoint as="offset" />
          </mxGeometry>
        </mxCell>
        <mxCell id="d6GwyU90o3NcPy6OCHg7-32" value="WriteHeader(&amp;amp;hdr, &amp;amp;date" style="html=1;verticalAlign=bottom;endArrow=block;entryX=0;entryY=0;labelBackgroundColor=none;fontFamily=Verdana;fontSize=12;edgeStyle=elbowEdgeStyle;elbow=vertical;" edge="1" parent="1">
          <mxGeometry relative="1" as="geometry">
            <mxPoint x="290.5" y="373" as="sourcePoint" />
            <mxPoint x="437.5" y="373" as="targetPoint" />
            <Array as="points">
              <mxPoint x="410.5" y="373" />
              <mxPoint x="380.5" y="356" />
            </Array>
          </mxGeometry>
        </mxCell>
        <mxCell id="d6GwyU90o3NcPy6OCHg7-33" value="return" style="html=1;verticalAlign=bottom;endArrow=open;dashed=1;endSize=8;exitX=0.3;exitY=0.194;exitDx=0;exitDy=0;exitPerimeter=0;" edge="1" parent="1">
          <mxGeometry relative="1" as="geometry">
            <mxPoint x="439.5" y="421.9000000000001" as="sourcePoint" />
            <mxPoint x="289" y="422" as="targetPoint" />
          </mxGeometry>
        </mxCell>
        <mxCell id="d6GwyU90o3NcPy6OCHg7-34" value="hdr.Set(Date, 1, sizeof(Int64))" style="html=1;verticalAlign=bottom;endArrow=block;labelBackgroundColor=none;fontFamily=Verdana;fontSize=12;elbow=vertical;edgeStyle=orthogonalEdgeStyle;curved=1;entryX=1;entryY=0.286;entryPerimeter=0;exitX=1.038;exitY=0.345;exitPerimeter=0;" edge="1" parent="1">
          <mxGeometry x="0.1731" relative="1" as="geometry">
            <mxPoint x="441.5" y="375" as="sourcePoint" />
            <mxPoint x="446.5" y="413.3333333333335" as="targetPoint" />
            <Array as="points">
              <mxPoint x="496.1666666666665" y="375" />
              <mxPoint x="496.1666666666665" y="413" />
            </Array>
            <mxPoint as="offset" />
          </mxGeometry>
        </mxCell>
        <mxCell id="d6GwyU90o3NcPy6OCHg7-35" value="WriteHeader(&amp;amp;hdr, fileType)" style="html=1;verticalAlign=bottom;endArrow=block;entryX=0;entryY=0;labelBackgroundColor=none;fontFamily=Verdana;fontSize=12;edgeStyle=elbowEdgeStyle;elbow=vertical;" edge="1" parent="1">
          <mxGeometry relative="1" as="geometry">
            <mxPoint x="291.5" y="458" as="sourcePoint" />
            <mxPoint x="438.5" y="458" as="targetPoint" />
            <Array as="points">
              <mxPoint x="411.5" y="458" />
              <mxPoint x="381.5" y="441" />
            </Array>
          </mxGeometry>
        </mxCell>
        <mxCell id="d6GwyU90o3NcPy6OCHg7-36" value="return" style="html=1;verticalAlign=bottom;endArrow=open;dashed=1;endSize=8;exitX=0.3;exitY=0.194;exitDx=0;exitDy=0;exitPerimeter=0;" edge="1" parent="1">
          <mxGeometry relative="1" as="geometry">
            <mxPoint x="440.5" y="506.9000000000001" as="sourcePoint" />
            <mxPoint x="290" y="507" as="targetPoint" />
          </mxGeometry>
        </mxCell>
        <mxCell id="d6GwyU90o3NcPy6OCHg7-37" value="hdr.Set(FileType, 0, 0)" style="html=1;verticalAlign=bottom;endArrow=block;labelBackgroundColor=none;fontFamily=Verdana;fontSize=12;elbow=vertical;edgeStyle=orthogonalEdgeStyle;curved=1;entryX=1;entryY=0.286;entryPerimeter=0;exitX=1.038;exitY=0.345;exitPerimeter=0;" edge="1" parent="1">
          <mxGeometry x="0.1731" relative="1" as="geometry">
            <mxPoint x="442.5" y="460" as="sourcePoint" />
            <mxPoint x="447.5" y="498.3333333333335" as="targetPoint" />
            <Array as="points">
              <mxPoint x="497.1666666666665" y="460" />
              <mxPoint x="497.1666666666665" y="498" />
            </Array>
            <mxPoint as="offset" />
          </mxGeometry>
        </mxCell>
        <mxCell id="d6GwyU90o3NcPy6OCHg7-38" value="WriteHeader(&amp;amp;hdr, _dbVersion)" style="html=1;verticalAlign=bottom;endArrow=block;entryX=0;entryY=0;labelBackgroundColor=none;fontFamily=Verdana;fontSize=12;edgeStyle=elbowEdgeStyle;elbow=vertical;" edge="1" parent="1">
          <mxGeometry relative="1" as="geometry">
            <mxPoint x="292.5" y="541" as="sourcePoint" />
            <mxPoint x="439.5" y="541" as="targetPoint" />
            <Array as="points">
              <mxPoint x="412.5" y="541" />
              <mxPoint x="382.5" y="524" />
            </Array>
          </mxGeometry>
        </mxCell>
        <mxCell id="d6GwyU90o3NcPy6OCHg7-39" value="return" style="html=1;verticalAlign=bottom;endArrow=open;dashed=1;endSize=8;exitX=0.3;exitY=0.194;exitDx=0;exitDy=0;exitPerimeter=0;" edge="1" parent="1">
          <mxGeometry relative="1" as="geometry">
            <mxPoint x="441.5" y="589.9000000000001" as="sourcePoint" />
            <mxPoint x="291" y="590" as="targetPoint" />
          </mxGeometry>
        </mxCell>
        <mxCell id="d6GwyU90o3NcPy6OCHg7-40" value="hdr.Set(SebVersion, 0, 0)" style="html=1;verticalAlign=bottom;endArrow=block;labelBackgroundColor=none;fontFamily=Verdana;fontSize=12;elbow=vertical;edgeStyle=orthogonalEdgeStyle;curved=1;entryX=1;entryY=0.286;entryPerimeter=0;exitX=1.038;exitY=0.345;exitPerimeter=0;" edge="1" parent="1">
          <mxGeometry x="0.1731" relative="1" as="geometry">
            <mxPoint x="443.5" y="543" as="sourcePoint" />
            <mxPoint x="448.5" y="581.3333333333335" as="targetPoint" />
            <Array as="points">
              <mxPoint x="498.1666666666665" y="543" />
              <mxPoint x="498.1666666666665" y="581" />
            </Array>
            <mxPoint as="offset" />
          </mxGeometry>
        </mxCell>
        <mxCell id="d6GwyU90o3NcPy6OCHg7-41" value="WriteHeader(&amp;amp;hdr, type, cnt)" style="html=1;verticalAlign=bottom;endArrow=block;entryX=0;entryY=0;labelBackgroundColor=none;fontFamily=Verdana;fontSize=12;edgeStyle=elbowEdgeStyle;elbow=vertical;" edge="1" parent="1">
          <mxGeometry relative="1" as="geometry">
            <mxPoint x="291.5" y="710" as="sourcePoint" />
            <mxPoint x="438.5" y="710" as="targetPoint" />
            <Array as="points">
              <mxPoint x="411.5" y="710" />
              <mxPoint x="381.5" y="693" />
            </Array>
          </mxGeometry>
        </mxCell>
        <mxCell id="d6GwyU90o3NcPy6OCHg7-42" value="return" style="html=1;verticalAlign=bottom;endArrow=open;dashed=1;endSize=8;exitX=0.3;exitY=0.194;exitDx=0;exitDy=0;exitPerimeter=0;" edge="1" parent="1">
          <mxGeometry relative="1" as="geometry">
            <mxPoint x="440.5" y="758.9000000000001" as="sourcePoint" />
            <mxPoint x="290" y="759" as="targetPoint" />
          </mxGeometry>
        </mxCell>
        <mxCell id="d6GwyU90o3NcPy6OCHg7-43" value="hdr.Set(ObjCount, 0, 0)" style="html=1;verticalAlign=bottom;endArrow=block;labelBackgroundColor=none;fontFamily=Verdana;fontSize=12;elbow=vertical;edgeStyle=orthogonalEdgeStyle;curved=1;entryX=1;entryY=0.286;entryPerimeter=0;exitX=1.038;exitY=0.345;exitPerimeter=0;" edge="1" parent="1">
          <mxGeometry x="0.1731" relative="1" as="geometry">
            <mxPoint x="442.5" y="712" as="sourcePoint" />
            <mxPoint x="447.5" y="750.3333333333335" as="targetPoint" />
            <Array as="points">
              <mxPoint x="497.1666666666665" y="712" />
              <mxPoint x="497.1666666666665" y="750" />
            </Array>
            <mxPoint as="offset" />
          </mxGeometry>
        </mxCell>
        <mxCell id="d6GwyU90o3NcPy6OCHg7-44" value="WriteModulecount" style="shape=umlFrame;whiteSpace=wrap;html=1;width=90;height=15;" vertex="1" parent="1">
          <mxGeometry x="180" y="690" width="420" height="80" as="geometry" />
        </mxCell>
        <mxCell id="d6GwyU90o3NcPy6OCHg7-45" value="WriteHeader(&amp;amp;hdr, 0)" style="html=1;verticalAlign=bottom;endArrow=block;entryX=0;entryY=0;labelBackgroundColor=none;fontFamily=Verdana;fontSize=12;edgeStyle=elbowEdgeStyle;elbow=vertical;" edge="1" parent="1">
          <mxGeometry relative="1" as="geometry">
            <mxPoint x="291.5" y="845" as="sourcePoint" />
            <mxPoint x="438.5" y="845" as="targetPoint" />
            <Array as="points">
              <mxPoint x="411.5" y="845" />
              <mxPoint x="381.5" y="828" />
            </Array>
          </mxGeometry>
        </mxCell>
        <mxCell id="d6GwyU90o3NcPy6OCHg7-46" value="return" style="html=1;verticalAlign=bottom;endArrow=open;dashed=1;endSize=8;" edge="1" parent="1">
          <mxGeometry relative="1" as="geometry">
            <mxPoint x="440" y="906" as="sourcePoint" />
            <mxPoint x="290" y="906" as="targetPoint" />
          </mxGeometry>
        </mxCell>
        <mxCell id="d6GwyU90o3NcPy6OCHg7-48" value="hdr.Set(Object, 1, sizeof(dbFileModule)" style="html=1;verticalAlign=bottom;endArrow=block;labelBackgroundColor=none;fontFamily=Verdana;fontSize=12;edgeStyle=elbowEdgeStyle;elbow=vertical;" edge="1" parent="1">
          <mxGeometry relative="1" as="geometry">
            <mxPoint x="446.5" y="863" as="sourcePoint" />
            <mxPoint x="646" y="863" as="targetPoint" />
            <Array as="points">
              <mxPoint x="590" y="863" />
              <mxPoint x="560" y="846" />
            </Array>
          </mxGeometry>
        </mxCell>
        <mxCell id="d6GwyU90o3NcPy6OCHg7-49" value="return" style="html=1;verticalAlign=bottom;endArrow=open;dashed=1;endSize=8;exitX=0;exitY=0.172;exitDx=0;exitDy=0;exitPerimeter=0;" edge="1" parent="1">
          <mxGeometry relative="1" as="geometry">
            <mxPoint x="650" y="892.8800000000001" as="sourcePoint" />
            <mxPoint x="450" y="893" as="targetPoint" />
          </mxGeometry>
        </mxCell>
        <mxCell id="d6GwyU90o3NcPy6OCHg7-50" value="WriteModuleHeader" style="shape=umlFrame;whiteSpace=wrap;html=1;width=110;height=15;" vertex="1" parent="1">
          <mxGeometry x="200" y="813" width="510" height="120" as="geometry" />
        </mxCell>
        <mxCell id="d6GwyU90o3NcPy6OCHg7-52" value="dbModule" style="shape=umlLifeline;perimeter=lifelinePerimeter;whiteSpace=wrap;html=1;container=1;collapsible=0;recursiveResize=0;outlineConnect=0;rounded=1;shadow=0;comic=0;labelBackgroundColor=none;strokeWidth=1;fontFamily=Verdana;fontSize=12;align=center;" vertex="1" parent="1">
          <mxGeometry x="790" y="80" width="100" height="2370" as="geometry" />
        </mxCell>
        <mxCell id="d6GwyU90o3NcPy6OCHg7-53" value="WriteHeader(&amp;amp;hdr, mod)" style="html=1;verticalAlign=bottom;endArrow=block;entryX=0;entryY=0;labelBackgroundColor=none;fontFamily=Verdana;fontSize=12;edgeStyle=elbowEdgeStyle;elbow=vertical;" edge="1" parent="1">
          <mxGeometry relative="1" as="geometry">
            <mxPoint x="291.5" y="979" as="sourcePoint" />
            <mxPoint x="438.5" y="979" as="targetPoint" />
            <Array as="points">
              <mxPoint x="411.5" y="979" />
              <mxPoint x="381.5" y="962" />
            </Array>
          </mxGeometry>
        </mxCell>
        <mxCell id="d6GwyU90o3NcPy6OCHg7-54" value="return" style="html=1;verticalAlign=bottom;endArrow=open;dashed=1;endSize=8;" edge="1" parent="1">
          <mxGeometry relative="1" as="geometry">
            <mxPoint x="440" y="1380" as="sourcePoint" />
            <mxPoint x="290" y="1380" as="targetPoint" />
          </mxGeometry>
        </mxCell>
        <mxCell id="d6GwyU90o3NcPy6OCHg7-55" value="InitWriteFileObj(Module)" style="html=1;verticalAlign=bottom;endArrow=block;labelBackgroundColor=none;fontFamily=Verdana;fontSize=12;edgeStyle=elbowEdgeStyle;elbow=vertical;" edge="1" parent="1">
          <mxGeometry relative="1" as="geometry">
            <mxPoint x="446.5" y="997" as="sourcePoint" />
            <mxPoint x="646" y="997" as="targetPoint" />
            <Array as="points">
              <mxPoint x="590" y="997" />
              <mxPoint x="560" y="980" />
            </Array>
          </mxGeometry>
        </mxCell>
        <mxCell id="d6GwyU90o3NcPy6OCHg7-56" value="return" style="html=1;verticalAlign=bottom;endArrow=open;dashed=1;endSize=8;exitX=0;exitY=0.172;exitDx=0;exitDy=0;exitPerimeter=0;" edge="1" parent="1">
          <mxGeometry relative="1" as="geometry">
            <mxPoint x="650" y="1026.88" as="sourcePoint" />
            <mxPoint x="450" y="1027" as="targetPoint" />
          </mxGeometry>
        </mxCell>
        <mxCell id="d6GwyU90o3NcPy6OCHg7-59" value="SetFileObjValue(Module, _flags)" style="html=1;verticalAlign=bottom;endArrow=block;labelBackgroundColor=none;fontFamily=Verdana;fontSize=12;edgeStyle=elbowEdgeStyle;elbow=vertical;" edge="1" parent="1">
          <mxGeometry relative="1" as="geometry">
            <mxPoint x="446.5" y="1060" as="sourcePoint" />
            <mxPoint x="646" y="1060" as="targetPoint" />
            <Array as="points">
              <mxPoint x="590" y="1060" />
              <mxPoint x="560" y="1043" />
            </Array>
          </mxGeometry>
        </mxCell>
        <mxCell id="d6GwyU90o3NcPy6OCHg7-60" value="return" style="html=1;verticalAlign=bottom;endArrow=open;dashed=1;endSize=8;exitX=0;exitY=0.172;exitDx=0;exitDy=0;exitPerimeter=0;" edge="1" parent="1">
          <mxGeometry relative="1" as="geometry">
            <mxPoint x="650" y="1089.88" as="sourcePoint" />
            <mxPoint x="450" y="1090" as="targetPoint" />
          </mxGeometry>
        </mxCell>
        <mxCell id="d6GwyU90o3NcPy6OCHg7-62" value="return" style="html=1;verticalAlign=bottom;endArrow=open;dashed=1;endSize=8;" edge="1" parent="1">
          <mxGeometry relative="1" as="geometry">
            <mxPoint x="440" y="334.5" as="sourcePoint" />
            <mxPoint x="290" y="334.5" as="targetPoint" />
          </mxGeometry>
        </mxCell>
        <mxCell id="d6GwyU90o3NcPy6OCHg7-63" value="SetFileObjValue(Module, _netCount)" style="html=1;verticalAlign=bottom;endArrow=block;labelBackgroundColor=none;fontFamily=Verdana;fontSize=12;edgeStyle=elbowEdgeStyle;elbow=vertical;" edge="1" parent="1">
          <mxGeometry relative="1" as="geometry">
            <mxPoint x="446.5" y="1120" as="sourcePoint" />
            <mxPoint x="646" y="1120" as="targetPoint" />
            <Array as="points">
              <mxPoint x="590" y="1120" />
              <mxPoint x="560" y="1103" />
            </Array>
          </mxGeometry>
        </mxCell>
        <mxCell id="d6GwyU90o3NcPy6OCHg7-64" value="return" style="html=1;verticalAlign=bottom;endArrow=open;dashed=1;endSize=8;exitX=0;exitY=0.172;exitDx=0;exitDy=0;exitPerimeter=0;" edge="1" parent="1">
          <mxGeometry relative="1" as="geometry">
            <mxPoint x="650" y="1149.88" as="sourcePoint" />
            <mxPoint x="450" y="1150" as="targetPoint" />
          </mxGeometry>
        </mxCell>
        <mxCell id="d6GwyU90o3NcPy6OCHg7-65" value="SetFileObjValue(Module, _instCount)" style="html=1;verticalAlign=bottom;endArrow=block;labelBackgroundColor=none;fontFamily=Verdana;fontSize=12;edgeStyle=elbowEdgeStyle;elbow=vertical;" edge="1" parent="1">
          <mxGeometry relative="1" as="geometry">
            <mxPoint x="446.5" y="1180" as="sourcePoint" />
            <mxPoint x="646" y="1180" as="targetPoint" />
            <Array as="points">
              <mxPoint x="590" y="1180" />
              <mxPoint x="560" y="1163" />
            </Array>
          </mxGeometry>
        </mxCell>
        <mxCell id="d6GwyU90o3NcPy6OCHg7-66" value="return" style="html=1;verticalAlign=bottom;endArrow=open;dashed=1;endSize=8;exitX=0;exitY=0.172;exitDx=0;exitDy=0;exitPerimeter=0;" edge="1" parent="1">
          <mxGeometry relative="1" as="geometry">
            <mxPoint x="650" y="1209.88" as="sourcePoint" />
            <mxPoint x="450" y="1210" as="targetPoint" />
          </mxGeometry>
        </mxCell>
        <mxCell id="d6GwyU90o3NcPy6OCHg7-67" value="SetFileObjValue(Module, _flags2)" style="html=1;verticalAlign=bottom;endArrow=block;labelBackgroundColor=none;fontFamily=Verdana;fontSize=12;edgeStyle=elbowEdgeStyle;elbow=vertical;" edge="1" parent="1">
          <mxGeometry relative="1" as="geometry">
            <mxPoint x="446.5" y="1240" as="sourcePoint" />
            <mxPoint x="646" y="1240" as="targetPoint" />
            <Array as="points">
              <mxPoint x="590" y="1240" />
              <mxPoint x="560" y="1223" />
            </Array>
          </mxGeometry>
        </mxCell>
        <mxCell id="d6GwyU90o3NcPy6OCHg7-68" value="return" style="html=1;verticalAlign=bottom;endArrow=open;dashed=1;endSize=8;exitX=0;exitY=0.172;exitDx=0;exitDy=0;exitPerimeter=0;" edge="1" parent="1">
          <mxGeometry relative="1" as="geometry">
            <mxPoint x="650" y="1269.88" as="sourcePoint" />
            <mxPoint x="450" y="1270" as="targetPoint" />
          </mxGeometry>
        </mxCell>
        <mxCell id="d6GwyU90o3NcPy6OCHg7-69" value="FiniShWriteFileObj(Module" style="html=1;verticalAlign=bottom;endArrow=block;labelBackgroundColor=none;fontFamily=Verdana;fontSize=12;edgeStyle=elbowEdgeStyle;elbow=vertical;" edge="1" parent="1">
          <mxGeometry relative="1" as="geometry">
            <mxPoint x="446.5" y="1327" as="sourcePoint" />
            <mxPoint x="646" y="1327" as="targetPoint" />
            <Array as="points">
              <mxPoint x="590" y="1327" />
              <mxPoint x="560" y="1310" />
            </Array>
          </mxGeometry>
        </mxCell>
        <mxCell id="d6GwyU90o3NcPy6OCHg7-70" value="return" style="html=1;verticalAlign=bottom;endArrow=open;dashed=1;endSize=8;exitX=0;exitY=0.172;exitDx=0;exitDy=0;exitPerimeter=0;" edge="1" parent="1">
          <mxGeometry relative="1" as="geometry">
            <mxPoint x="650" y="1356.88" as="sourcePoint" />
            <mxPoint x="450" y="1357" as="targetPoint" />
          </mxGeometry>
        </mxCell>
        <mxCell id="d6GwyU90o3NcPy6OCHg7-71" value="WriteModule" style="shape=umlFrame;whiteSpace=wrap;html=1;width=100;height=15;" vertex="1" parent="1">
          <mxGeometry x="200" y="950" width="510" height="460" as="geometry" />
        </mxCell>
        <mxCell id="d6GwyU90o3NcPy6OCHg7-73" value="" style="line;strokeWidth=1;rotatable=0;dashed=1;labelPosition=right;align=left;verticalAlign=middle;spacingTop=0;spacingLeft=6;points=[];portConstraint=eastwest;" vertex="1" parent="1">
          <mxGeometry x="200" y="1290" width="510" height="10" as="geometry" />
        </mxCell>
        <mxCell id="d6GwyU90o3NcPy6OCHg7-74" value="return" style="html=1;verticalAlign=bottom;endArrow=open;dashed=1;endSize=8;" edge="1" parent="1">
          <mxGeometry relative="1" as="geometry">
            <mxPoint x="430" y="2100" as="sourcePoint" />
            <mxPoint x="280" y="2100" as="targetPoint" />
          </mxGeometry>
        </mxCell>
        <mxCell id="d6GwyU90o3NcPy6OCHg7-75" value="&lt;b&gt;Not Completed&lt;/b&gt;" style="text;html=1;strokeColor=none;fillColor=none;align=center;verticalAlign=middle;whiteSpace=wrap;rounded=0;dashed=1;" vertex="1" parent="1">
          <mxGeometry x="190" y="1300" width="110" height="20" as="geometry" />
        </mxCell>
        <mxCell id="d6GwyU90o3NcPy6OCHg7-76" value="" style="html=1;points=[];perimeter=orthogonalPerimeter;rounded=0;shadow=0;comic=0;labelBackgroundColor=none;strokeWidth=1;fontFamily=Verdana;fontSize=12;align=center;" vertex="1" parent="1">
          <mxGeometry x="830" y="1480" width="10" height="300" as="geometry" />
        </mxCell>
        <mxCell id="d6GwyU90o3NcPy6OCHg7-77" value="WriteHeader(&amp;amp;hdr, owner0-&amp;gt;GetId()..))" style="html=1;verticalAlign=bottom;endArrow=block;entryX=0;entryY=0;labelBackgroundColor=none;fontFamily=Verdana;fontSize=12;edgeStyle=elbowEdgeStyle;elbow=vertical;" edge="1" parent="1">
          <mxGeometry relative="1" as="geometry">
            <mxPoint x="290" y="1467" as="sourcePoint" />
            <mxPoint x="437" y="1467" as="targetPoint" />
            <Array as="points">
              <mxPoint x="410" y="1467" />
              <mxPoint x="380" y="1450" />
            </Array>
          </mxGeometry>
        </mxCell>
        <mxCell id="d6GwyU90o3NcPy6OCHg7-78" value="WriteName(module, 0, module-&amp;gt;GetName())" style="html=1;verticalAlign=bottom;endArrow=block;labelBackgroundColor=none;fontFamily=Verdana;fontSize=12;edgeStyle=elbowEdgeStyle;elbow=vertical;entryX=0;entryY=0.1;entryDx=0;entryDy=0;entryPerimeter=0;" edge="1" parent="1" target="d6GwyU90o3NcPy6OCHg7-76">
          <mxGeometry relative="1" as="geometry">
            <mxPoint x="450.5" y="1510" as="sourcePoint" />
            <mxPoint x="650" y="1510" as="targetPoint" />
            <Array as="points">
              <mxPoint x="594" y="1510" />
              <mxPoint x="564" y="1493" />
            </Array>
          </mxGeometry>
        </mxCell>
        <mxCell id="d6GwyU90o3NcPy6OCHg7-79" value="return" style="html=1;verticalAlign=bottom;endArrow=open;dashed=1;endSize=8;" edge="1" parent="1">
          <mxGeometry relative="1" as="geometry">
            <mxPoint x="830" y="1530" as="sourcePoint" />
            <mxPoint x="450" y="1530.12" as="targetPoint" />
          </mxGeometry>
        </mxCell>
        <mxCell id="d6GwyU90o3NcPy6OCHg7-80" value="return" style="html=1;verticalAlign=bottom;endArrow=open;dashed=1;endSize=8;" edge="1" parent="1">
          <mxGeometry relative="1" as="geometry">
            <mxPoint x="440" y="1540" as="sourcePoint" />
            <mxPoint x="290" y="1540" as="targetPoint" />
          </mxGeometry>
        </mxCell>
        <mxCell id="d6GwyU90o3NcPy6OCHg7-82" value="return" style="html=1;verticalAlign=bottom;endArrow=open;dashed=1;endSize=8;" edge="1" parent="1">
          <mxGeometry relative="1" as="geometry">
            <mxPoint x="830" y="1631" as="sourcePoint" />
            <mxPoint x="450" y="1631.12" as="targetPoint" />
          </mxGeometry>
        </mxCell>
        <mxCell id="d6GwyU90o3NcPy6OCHg7-83" value="WriteName(module, 0, module-&amp;gt;GetOriginalName())" style="html=1;verticalAlign=bottom;endArrow=block;labelBackgroundColor=none;fontFamily=Verdana;fontSize=12;edgeStyle=elbowEdgeStyle;elbow=vertical;entryX=0;entryY=0.1;entryDx=0;entryDy=0;entryPerimeter=0;" edge="1" parent="1">
          <mxGeometry relative="1" as="geometry">
            <mxPoint x="450.5" y="1611" as="sourcePoint" />
            <mxPoint x="830" y="1611" as="targetPoint" />
            <Array as="points">
              <mxPoint x="594" y="1611" />
              <mxPoint x="564" y="1594" />
            </Array>
          </mxGeometry>
        </mxCell>
        <mxCell id="d6GwyU90o3NcPy6OCHg7-84" value="WriteHeader(&amp;amp;hdr, owner0-&amp;gt;GetId()..))" style="html=1;verticalAlign=bottom;endArrow=block;entryX=0;entryY=0;labelBackgroundColor=none;fontFamily=Verdana;fontSize=12;edgeStyle=elbowEdgeStyle;elbow=vertical;" edge="1" parent="1">
          <mxGeometry relative="1" as="geometry">
            <mxPoint x="290" y="1568" as="sourcePoint" />
            <mxPoint x="437" y="1568" as="targetPoint" />
            <Array as="points">
              <mxPoint x="410" y="1568" />
              <mxPoint x="380" y="1551" />
            </Array>
          </mxGeometry>
        </mxCell>
        <mxCell id="d6GwyU90o3NcPy6OCHg7-85" value="return" style="html=1;verticalAlign=bottom;endArrow=open;dashed=1;endSize=8;" edge="1" parent="1">
          <mxGeometry relative="1" as="geometry">
            <mxPoint x="440" y="1641" as="sourcePoint" />
            <mxPoint x="290" y="1641" as="targetPoint" />
          </mxGeometry>
        </mxCell>
        <mxCell id="d6GwyU90o3NcPy6OCHg7-86" value="return" style="html=1;verticalAlign=bottom;endArrow=open;dashed=1;endSize=8;" edge="1" parent="1">
          <mxGeometry relative="1" as="geometry">
            <mxPoint x="830" y="1769" as="sourcePoint" />
            <mxPoint x="450" y="1769.12" as="targetPoint" />
          </mxGeometry>
        </mxCell>
        <mxCell id="d6GwyU90o3NcPy6OCHg7-87" value="WriteName(module, 0, opt, dbVio::GetRuleName())" style="html=1;verticalAlign=bottom;endArrow=block;labelBackgroundColor=none;fontFamily=Verdana;fontSize=12;edgeStyle=elbowEdgeStyle;elbow=vertical;entryX=0;entryY=0.1;entryDx=0;entryDy=0;entryPerimeter=0;" edge="1" parent="1">
          <mxGeometry relative="1" as="geometry">
            <mxPoint x="450.5" y="1749" as="sourcePoint" />
            <mxPoint x="830" y="1749" as="targetPoint" />
            <Array as="points">
              <mxPoint x="594" y="1749" />
              <mxPoint x="564" y="1732" />
            </Array>
          </mxGeometry>
        </mxCell>
        <mxCell id="d6GwyU90o3NcPy6OCHg7-88" value="WriteHeader(&amp;amp;hdr, owner0-&amp;gt;GetId()..))" style="html=1;verticalAlign=bottom;endArrow=block;entryX=0;entryY=0;labelBackgroundColor=none;fontFamily=Verdana;fontSize=12;edgeStyle=elbowEdgeStyle;elbow=vertical;" edge="1" parent="1">
          <mxGeometry relative="1" as="geometry">
            <mxPoint x="290" y="1706" as="sourcePoint" />
            <mxPoint x="437" y="1706" as="targetPoint" />
            <Array as="points">
              <mxPoint x="410" y="1706" />
              <mxPoint x="380" y="1689" />
            </Array>
          </mxGeometry>
        </mxCell>
        <mxCell id="d6GwyU90o3NcPy6OCHg7-89" value="return" style="html=1;verticalAlign=bottom;endArrow=open;dashed=1;endSize=8;" edge="1" parent="1">
          <mxGeometry relative="1" as="geometry">
            <mxPoint x="440" y="1779" as="sourcePoint" />
            <mxPoint x="290" y="1779" as="targetPoint" />
          </mxGeometry>
        </mxCell>
        <mxCell id="d6GwyU90o3NcPy6OCHg7-90" value="WriteModuleVarField" style="shape=umlFrame;whiteSpace=wrap;html=1;width=120;height=15;" vertex="1" parent="1">
          <mxGeometry x="200" y="1430" width="670" height="360" as="geometry" />
        </mxCell>
        <mxCell id="d6GwyU90o3NcPy6OCHg7-91" value="" style="line;strokeWidth=1;rotatable=0;dashed=1;labelPosition=right;align=left;verticalAlign=middle;spacingTop=0;spacingLeft=6;points=[];portConstraint=eastwest;" vertex="1" parent="1">
          <mxGeometry x="200" y="1654" width="670" height="10" as="geometry" />
        </mxCell>
        <mxCell id="d6GwyU90o3NcPy6OCHg7-92" value="&lt;b&gt;Not Completed&lt;/b&gt;" style="text;html=1;strokeColor=none;fillColor=none;align=center;verticalAlign=middle;whiteSpace=wrap;rounded=0;dashed=1;" vertex="1" parent="1">
          <mxGeometry x="200" y="1664" width="110" height="20" as="geometry" />
        </mxCell>
        <mxCell id="d6GwyU90o3NcPy6OCHg7-93" value="Loop" style="shape=umlFrame;whiteSpace=wrap;html=1;width=70;height=20;" vertex="1" parent="1">
          <mxGeometry x="170" y="780" width="720" height="1030" as="geometry" />
        </mxCell>
        <mxCell id="d6GwyU90o3NcPy6OCHg7-94" value="&lt;b&gt;Per each module in design&lt;/b&gt;" style="text;html=1;strokeColor=none;fillColor=none;align=center;verticalAlign=middle;whiteSpace=wrap;rounded=0;" vertex="1" parent="1">
          <mxGeometry x="230" y="780" width="200" height="20" as="geometry" />
        </mxCell>
        <mxCell id="d6GwyU90o3NcPy6OCHg7-95" value="WriteDesignObjects" style="shape=umlFrame;whiteSpace=wrap;html=1;width=130;height=15;" vertex="1" parent="1">
          <mxGeometry x="150" y="630" width="770" height="1200" as="geometry" />
        </mxCell>
        <mxCell id="d6GwyU90o3NcPy6OCHg7-96" value="" style="line;strokeWidth=1;rotatable=0;dashed=1;labelPosition=right;align=left;verticalAlign=middle;spacingTop=0;spacingLeft=6;points=[];portConstraint=eastwest;" vertex="1" parent="1">
          <mxGeometry x="150" y="660" width="770" height="10" as="geometry" />
        </mxCell>
        <mxCell id="d6GwyU90o3NcPy6OCHg7-97" value="&lt;b&gt;Not Completed&lt;/b&gt;" style="text;html=1;strokeColor=none;fillColor=none;align=center;verticalAlign=middle;whiteSpace=wrap;rounded=0;" vertex="1" parent="1">
          <mxGeometry x="160" y="670" width="100" height="20" as="geometry" />
        </mxCell>
        <mxCell id="d6GwyU90o3NcPy6OCHg7-98" value="WriteDbFile(DESIGN, _projIdxTbl, WriteDesignObjects, topModule)" style="shape=umlFrame;whiteSpace=wrap;html=1;width=390;height=15;" vertex="1" parent="1">
          <mxGeometry x="140" y="230" width="820" height="1620" as="geometry" />
        </mxCell>
      </root>
    </mxGraphModel>
  </diagram>
</mxfile>
